<?xml version="1.0" encoding="UTF-8" standalone="no"?>
<svg
   xmlns:dc="http://purl.org/dc/elements/1.1/"
   xmlns:cc="http://creativecommons.org/ns#"
   xmlns:rdf="http://www.w3.org/1999/02/22-rdf-syntax-ns#"
   xmlns:svg="http://www.w3.org/2000/svg"
   xmlns="http://www.w3.org/2000/svg"
   xmlns:sodipodi="http://sodipodi.sourceforge.net/DTD/sodipodi-0.dtd"
   xmlns:inkscape="http://www.inkscape.org/namespaces/inkscape"
   version="1.1"
   id="Layer_1"
   x="0px"
   y="0px"
   viewBox="0 0 377.38821 141.40938"
   xml:space="preserve"
   sodipodi:docname="Lacarte.svg"
   width="377.38821"
   height="141.40938"
   inkscape:version="1.0.1 (3bc2e813f5, 2020-09-07)"><metadata
   id="metadata69"><rdf:RDF><cc:Work
       rdf:about=""><dc:format>image/svg+xml</dc:format><dc:type
         rdf:resource="http://purl.org/dc/dcmitype/StillImage" /><dc:title></dc:title></cc:Work></rdf:RDF></metadata><defs
   id="defs67" /><sodipodi:namedview
   pagecolor="#ffffff"
   bordercolor="#666666"
   borderopacity="1"
   objecttolerance="10"
   gridtolerance="10"
   guidetolerance="10"
   inkscape:pageopacity="0"
   inkscape:pageshadow="2"
   inkscape:window-width="2100"
   inkscape:window-height="1234"
   id="namedview65"
   showgrid="false"
   fit-margin-top="0"
   fit-margin-left="0"
   fit-margin-right="0"
   fit-margin-bottom="0"
   inkscape:zoom="1.3562092"
   inkscape:cx="195.47351"
   inkscape:cy="84.309375"
   inkscape:window-x="-9"
   inkscape:window-y="-9"
   inkscape:window-maximized="1"
   inkscape:current-layer="Layer_1" />
<style
   type="text/css"
   id="style2">
	.st0{fill:#FFFFFF;}
	.st1{fill:#ED186A;}
	.st2{fill:#ED1868;}
</style>
<rect
   y="-985.69061"
   width="792"
   height="612"
   id="rect4"
   x="-200.52649" />
<g
   id="g14"
   transform="translate(-200.52649,-221.69063)">
	<path
   class="st0"
   d="m 541.2,353 c -1.8,-0.1 -3.7,-0.4 -5.4,-0.8 -10.3,-1.6 -21.2,-9.7 -28.4,-21.5 -8.4,-13.7 -9.9,-28.9 -3.8,-40.9 5.2,-10.3 16.1,-22.8 19.3,-26.3 9.5,-10.8 11.2,-19.2 5.7,-28.4 -1.4,-2.4 -1.2,-5.2 0.6,-6.8 0.9,-0.7 1.9,-1.1 3.1,-1 1.3,0 2.6,0.5 3.7,1.5 11.3,9.5 18.7,25.8 20.7,38.2 0.4,0.3 0.7,0.6 1,0.9 6.8,7 10.3,17.2 8.8,25.3 -0.5,2.5 -1.4,4.6 -2.6,6.4 0,0 0,0 0.1,0.1 7,8.5 9.9,19.1 8.4,30.4 -2.2,15.6 -17.8,23.7 -31.2,22.9 z M 557,306.6 c -0.7,0.6 -1.3,1.2 -1.8,1.8 -1.3,1.4 -1.5,3.3 -1.2,4.6 0.2,0.9 0.7,1.2 1.1,1.5 0.3,0.2 0.6,0.3 0.8,0.3 0.5,0 1.3,-0.7 1.7,-2.1 0.6,-1.9 0.2,-4.3 -0.6,-6.1 z"
   id="path6" />
	<path
   class="st1"
   d="m 533,232.7 c 11.9,10 19,29 18.8,39.5 -0.1,7.4 -2.2,13.6 -8,18.7 0.1,0 0.2,0 0.3,0 7.3,0.5 13.8,-13.1 10.2,-19.6 4.9,5 8,13 6.8,19.4 -1.2,6.2 -6.5,9.2 -10.3,13.4 -3.9,4.4 -3.1,11.9 2.4,15.1 1.2,0.7 2.4,1.1 3.4,1.2 3.1,0.3 5.2,-1.9 6.1,-4.9 1.2,-4 0.1,-9.4 -2.5,-13 6.2,7.4 7.9,16.4 6.8,25.1 -1.8,13.2 -15.1,20.4 -26.6,19.8 -1.6,-0.1 -3.1,-0.3 -4.5,-0.7 -18.4,-2.7 -38.4,-32 -27.4,-54 4.2,-8.2 12.7,-18.8 18.6,-25.2 8.3,-9.4 14.3,-20.5 5.9,-34.8 m -1.6,-11 c -2.3,-0.1 -4.5,0.6 -6.2,2.1 -3.6,3.1 -4.2,8.8 -1.3,13.6 2.7,4.6 4.8,10.4 -5.5,22.1 -4.3,4.7 -14.6,16.9 -19.9,27.4 -6.9,13.8 -5.3,31 4.2,46.3 8.2,13.2 20.8,22.4 32.9,24.5 2,0.5 4.1,0.8 6.2,1 15.7,0.9 33.2,-8 35.7,-26.5 1.5,-11.3 -1.1,-22.6 -7.3,-32 0.6,-1.4 1.1,-2.9 1.4,-4.6 1.8,-9.7 -2.3,-22.1 -10.3,-30.7 -2.7,-13.5 -10.7,-30 -22.6,-40.1 -2.1,-2.1 -4.7,-3.1 -7.3,-3.1 z"
   id="path8" />
	<path
   class="st0"
   d="m 510.4,303.2 c -2,-2.8 -5,-4.7 -8.4,-5.2 -1.9,-0.3 -3.8,-0.2 -5.6,0.2 -0.5,-2.5 -1.3,-4.9 -2.4,-7.3 -1.9,-4.1 -4.5,-7.7 -8,-10.8 -4.2,-3.8 -9.4,-5.7 -14.9,-5.7 -2.9,0 -6.7,0.7 -10.6,3.1 -0.8,-1.3 -2,-2.7 -3.6,-3.9 -1.5,-1.2 -3.3,-2 -5.3,-2.6 -0.6,-3.2 -2.3,-6.1 -4.9,-8.4 -3.1,-2.7 -6.9,-4.3 -11,-4.6 -4.3,-0.3 -8.4,0.9 -12,3.6 -2.3,1.7 -5,4.7 -6.1,9.7 -2.7,0.5 -5,1.4 -7,2.9 -3.8,2.8 -5.7,6.9 -5.4,11.2 0,0.5 0.1,1.2 0.3,1.9 -2.3,-1.6 -5.2,-2.6 -8.8,-2.6 -3.8,0 -7.4,1.2 -10.4,3.6 -1,0.8 -1.9,1.7 -2.7,2.6 -1.5,-1.3 -3.2,-2.3 -5,-3.1 -2.9,-1.2 -5.9,-1.6 -9,-1.4 -2.6,-2.4 -5.7,-3.9 -9.1,-4.7 h -0.2 c -7.4,-1.4 -14.3,-0.1 -19.9,3.9 -2.7,1.9 -5.1,4.3 -7.2,7 -0.3,-0.5 -0.5,-1.1 -0.8,-1.6 -4.2,-7.5 -11.2,-11.7 -19.7,-11.7 -6,0 -11.5,2.5 -16,7.2 -2,2.1 -3.8,4.5 -5.4,7.1 -2,-2.6 -4.6,-4.6 -7.6,-5.9 -2.9,-1.2 -5.9,-1.6 -9,-1.4 -2.6,-2.4 -5.7,-3.9 -9.1,-4.7 h -0.2 c -7.4,-1.4 -14.3,0 -19.9,3.9 -4.1,2.9 -7.6,6.8 -10.2,11.5 0.2,-3.1 0.5,-6.1 0.7,-9.1 0.5,-5.7 1,-10.8 1.6,-15.2 0.6,-4.4 1,-7.3 1.2,-8.7 1,-5.5 -0.8,-10.7 -4.9,-14.3 -3.1,-2.7 -7,-4.3 -11.2,-4.6 -4.3,-0.3 -8.5,1 -12.1,3.6 -3,2.2 -6.6,6.5 -6.6,14.6 0,2.5 -0.2,6.4 -0.7,11.6 -0.5,5.6 -1.1,11.8 -1.6,18.4 -0.5,6.8 -0.9,13.8 -1.1,21 -0.2,7.4 0,14.3 0.7,20.4 0.8,6.8 2.2,12.5 4.5,17.2 3.4,7.1 9.5,11.2 16.9,11.2 4.5,0 11,-1.4 16.6,-7.8 3,3 6.6,5.1 10.7,6.3 l 0.2,0.1 c 1.5,0.4 3.1,0.6 4.8,0.6 2.5,0 5.2,-0.5 8,-1.4 l 0.6,-0.2 c 4.1,-1.7 7.6,-4.2 10.3,-7.7 0.8,0.3 1.7,0.6 2.6,0.9 4.9,1.4 9.8,0.8 14.2,-1.8 1.3,-0.7 2.5,-1.6 3.6,-2.6 3.3,2.7 8.2,5.2 15.3,5.6 h 0.2 c 0.4,0 0.8,0 1.3,0 4.7,0 9.1,-0.9 13.1,-2.8 1.9,-0.9 3.7,-1.9 5.4,-3.1 0.2,0.3 0.3,0.6 0.5,0.9 3.5,5.8 8.6,9.7 14.8,11.4 l 0.2,0.1 c 1.5,0.4 3.1,0.6 4.8,0.6 2.5,0 5.2,-0.5 8,-1.4 l 0.6,-0.2 c 4.1,-1.7 7.6,-4.2 10.3,-7.7 0.8,0.3 1.7,0.6 2.6,0.9 4.9,1.4 9.8,0.8 14.2,-1.8 2.2,-1.3 4.3,-3 6.2,-4.9 0,0 0,0.1 0.1,0.1 3.1,5.8 8.5,9.2 15.1,9.4 0.4,0 0.8,0 1.1,0 4.5,0 8.6,-1.3 12.3,-3.8 0.6,-0.4 1.1,-0.8 1.6,-1.2 3.4,4.1 8.2,6.3 13.5,6.3 5.8,0 11,-2 15.3,-5.8 4.4,5 10.6,7.6 17.8,7.6 5.5,0 10.6,-1.2 15.3,-3.7 4.1,-2.2 7.7,-4.9 10.9,-8.2 3,-3.1 5.7,-6.6 7.8,-10.3 1.9,-3.3 3.6,-6.6 5,-9.8 1.4,-3.2 2.5,-6.2 3.2,-8.9 0.8,-2.7 1.1,-3.7 1.2,-4.1 l 0.2,-0.5 0.1,-0.5 c 1.1,-3.6 0.3,-7.4 -1.9,-10.5 z m -42.8,-3.3 v 1.3 c -0.2,-0.2 -0.4,-0.4 -0.6,-0.6 0.2,-0.3 0.4,-0.5 0.6,-0.7 z m 7.8,27.6 c 0,-0.1 0,-0.2 0,-0.3 0.1,0 0.2,0 0.3,-0.1 -0.1,0.1 -0.2,0.2 -0.3,0.4 z"
   id="path10" />
	<path
   d="m 502.3,309.1 c -0.5,-0.7 -1.2,-1.1 -1.9,-1.3 -0.8,-0.1 -1.6,0 -2.4,0.4 -0.8,0.4 -1.5,1.2 -1.8,2.3 -0.3,0.9 -0.8,2.4 -1.7,4.4 -0.9,2 -2,4.2 -3.3,6.6 -1.3,2.4 -2.8,4.9 -4.5,7.5 -1.7,2.6 -3.4,4.8 -5.2,6.8 -1.8,1.9 -3.7,3.5 -5.6,4.6 -1.9,1.1 -3.8,1.4 -5.4,0.9 -1.3,-0.4 -2.3,-1.3 -3,-2.7 -0.7,-1.4 -1.2,-3.2 -1.6,-5.2 -0.3,-2.1 -0.5,-4.4 -0.4,-7 0.1,-2.6 0.3,-5.2 0.7,-7.9 1.4,-0.1 3.1,-0.3 4.9,-0.6 1.9,-0.3 3.7,-0.7 5.5,-1.3 1.8,-0.6 3.5,-1.3 5,-2.2 1.6,-0.9 2.8,-2.1 3.9,-3.5 1.3,-1.7 1.8,-4 1.6,-7 -0.2,-3 -0.9,-5.9 -2.2,-8.7 -1.3,-2.8 -3.1,-5.3 -5.5,-7.5 -2.4,-2.1 -5.1,-3.2 -8.2,-3.2 -3.2,0 -6.2,1.6 -8.8,4.8 -2.7,3.2 -4.8,7.3 -6.6,12.2 -1.1,3.2 -2,6.5 -2.6,9.9 -0.4,1.1 -1.1,2.7 -1.9,4.9 -1.2,2.9 -2.5,5.9 -3.9,8.9 -1.4,3 -2.8,5.7 -4.2,8 -1.4,2.3 -2.4,3.5 -3.2,3.5 -0.9,0 -1.5,-1.6 -1.7,-4.9 -0.3,-3.3 -0.3,-7.4 -0.2,-12.4 0.1,-5 0.4,-10.3 0.8,-15.9 0.4,-5.6 0.8,-10.8 1.4,-15.4 h 5.8 c 2.1,0 3.7,-0.4 4.8,-1.2 1.2,-0.8 1.7,-1.6 1.7,-2.6 0,-1 -0.6,-1.9 -1.6,-2.7 -1.1,-0.8 -2.9,-1.3 -5.3,-1.3 H 441 l 1,-5 c 0.4,-2.1 -0.2,-3.7 -1.6,-5 -1.5,-1.3 -3.2,-2 -5.1,-2.1 -1.9,-0.1 -3.8,0.4 -5.4,1.6 -1.7,1.2 -2.5,3.4 -2.5,6.5 0,0.6 0,1.4 -0.1,2.2 -0.1,0.8 -0.1,1.7 -0.1,2.6 H 422 c -2.3,0 -4,0.4 -5,1.2 -1,0.8 -1.5,1.6 -1.5,2.5 0.1,0.9 0.6,1.7 1.7,2.5 1.1,0.8 2.7,1.2 4.8,1.2 h 4.7 c -0.3,3.8 -0.6,7.9 -1,12.3 -0.3,3.4 -0.5,6.7 -0.6,10.1 -0.3,1.5 -0.9,3.7 -1.9,6.6 -1,3 -2.2,6 -3.5,9 -1.3,3 -2.6,5.6 -3.8,7.9 -1.2,2.3 -2.2,3.4 -3,3.4 -1.2,0 -1.9,-1 -2.1,-3.1 -0.3,-2.1 -0.3,-4.6 0,-7.5 0.3,-2.9 0.7,-6 1.3,-9.2 0.6,-3.2 1.1,-6 1.6,-8.3 0.5,-2.3 0.3,-3.8 -0.8,-4.5 -1,-0.6 -2.3,-0.9 -3.9,-0.9 -1.6,0.1 -3.2,0.2 -4.9,0.5 -1.7,0.3 -3,0.2 -3.8,-0.2 1,-2.5 1.4,-4.7 1.2,-6.7 -0.3,-2 -1.7,-3 -4.5,-3 -1.6,0 -2.9,0.5 -4.2,1.5 -1.2,1 -2.2,2.1 -2.8,3.5 -0.6,1.4 -0.9,2.8 -0.8,4.4 0.1,1.6 0.8,2.9 1.9,4.1 l -1.2,3.3 c -0.3,0.7 -0.4,1.4 -0.3,2 -0.3,1 -0.6,2.1 -1,3.3 -0.9,2.7 -1.9,5.4 -3,8.1 -1.1,2.7 -2.2,5.1 -3.3,7.1 -1.1,2 -2,3 -2.8,3 -1,0 -1.7,-1.2 -2,-3.5 -0.3,-2.3 -0.4,-5.1 -0.3,-8.3 0.1,-3.2 0.4,-6.6 0.9,-10.1 0.5,-3.5 0.9,-6.4 1.5,-8.7 0.3,-1.7 -0.1,-3.1 -1,-4.4 -0.9,-1.2 -2.1,-2.1 -3.5,-2.7 -1.4,-0.6 -2.9,-0.8 -4.5,-0.7 -1.6,0.1 -2.8,0.8 -3.9,1.9 -0.9,-1.6 -2,-3 -3.4,-4.3 -1.4,-1.3 -2.9,-2.1 -4.7,-2.5 -4.8,-0.9 -8.9,-0.2 -12.2,2.2 -3.4,2.4 -6,5.7 -8,9.8 -0.9,2 -1.7,4 -2.4,6.2 -0.1,0.2 -0.2,0.4 -0.2,0.6 -0.4,1.3 -1.3,3.5 -2.7,6.7 -1.4,3.2 -3.2,6.3 -5.2,9.4 -2.1,3.1 -4.4,5.7 -7.1,7.9 -2.7,2.1 -5.5,2.7 -8.6,1.8 -1.8,-0.5 -3.1,-1.8 -3.8,-3.9 -0.7,-2.1 -1.1,-4.5 -1.1,-7.4 0,-2.8 0.3,-5.8 0.9,-9 0.6,-3.2 1.3,-6.1 2,-8.8 0.8,-2.7 1.6,-5 2.6,-6.8 1,-1.8 1.8,-2.8 2.6,-2.9 0.8,-0.1 1.2,0.7 1.3,2.4 0.1,1.7 0,3.8 -0.2,6.2 -0.2,2.4 -0.5,4.8 -0.9,7.1 -0.4,2.3 -0.6,4 -0.8,5 -0.3,1.6 0.2,2.5 1.3,2.9 1.1,0.4 2.4,0.3 3.9,-0.3 1.5,-0.6 2.9,-1.7 4.3,-3.3 1.4,-1.6 2.2,-3.7 2.4,-6.3 0.5,-5.8 -0.4,-10.9 -2.8,-15.2 -2.4,-4.3 -6,-6.5 -11,-6.5 -3.2,0 -6.1,1.4 -8.7,4.1 -2.6,2.7 -4.8,6.1 -6.5,10.2 -1.3,3.1 -2.3,6.4 -3,9.9 -0.3,0.9 -0.6,1.9 -0.9,3 -0.9,2.7 -1.9,5.4 -3,8.1 -1.1,2.7 -2.2,5.1 -3.3,7.1 -1.1,2 -2,3 -2.8,3 -1,0 -1.7,-1.2 -2,-3.5 -0.3,-2.3 -0.4,-5.1 -0.3,-8.3 0.1,-3.2 0.4,-6.6 0.9,-10.1 0.5,-3.5 0.9,-6.4 1.5,-8.7 0.3,-1.7 -0.1,-3.1 -1,-4.4 -0.9,-1.2 -2.1,-2.1 -3.5,-2.7 -1.4,-0.6 -2.9,-0.8 -4.5,-0.7 -1.6,0.1 -2.8,0.8 -3.9,1.9 -0.9,-1.6 -2,-3 -3.4,-4.3 -1.4,-1.3 -2.9,-2.1 -4.8,-2.5 -4.8,-0.9 -8.9,-0.2 -12.2,2.2 -3.4,2.4 -6,5.7 -8,9.8 -0.8,1.7 -1.5,3.5 -2.1,5.4 -0.2,0.3 -0.4,0.7 -0.5,1.2 -0.4,1 -1.2,3.3 -2.3,6.7 -1.2,3.4 -2.4,6.9 -3.8,10.6 -1.4,3.6 -2.7,6.9 -4.1,9.7 -1.4,2.8 -2.4,4.3 -3.2,4.3 -1.3,0 -2.2,-1.7 -2.6,-5.1 -0.5,-3.4 -0.6,-7.8 -0.6,-13.2 0.1,-5.4 0.3,-11.2 0.7,-17.5 0.4,-6.3 0.8,-12.4 1.4,-18.3 0.5,-5.9 1.1,-11.1 1.6,-15.6 0.6,-4.5 1,-7.6 1.3,-9.1 0.4,-2.1 -0.2,-3.7 -1.6,-5 -1.5,-1.3 -3.2,-2 -5.2,-2.1 -2,-0.1 -3.8,0.4 -5.5,1.6 -1.7,1.2 -2.5,3.4 -2.5,6.5 0,2.8 -0.3,7 -0.8,12.5 -0.5,5.5 -1,11.6 -1.6,18.2 -0.5,6.7 -0.9,13.5 -1.1,20.5 -0.2,7 0,13.3 0.7,19 0.6,5.7 1.8,10.4 3.6,14.1 1.7,3.7 4.4,5.5 7.9,5.5 3.7,0 7,-1.7 9.7,-5 2.7,-3.4 5,-7.3 7,-11.8 0.2,-0.4 0.3,-0.8 0.5,-1.3 0.8,3.7 2.2,7 3.9,10 2.2,3.6 5.2,5.9 8.9,7 2.1,0.5 4.5,0.3 7.2,-0.6 2.8,-1.2 5.2,-3 7,-5.5 1.8,-2.5 3.2,-5.3 4.3,-8.4 1.7,3.5 4.4,5.8 8.1,6.8 2.3,0.6 4.5,0.4 6.5,-0.8 2,-1.2 3.8,-2.8 5.4,-4.9 1.4,-1.8 2.6,-3.8 3.6,-6.1 1,3.1 2.5,5.8 4.6,8.1 2.6,2.8 6.2,4.4 10.9,4.7 3.6,0.1 6.9,-0.5 9.8,-1.8 2.9,-1.4 5.5,-3.1 7.8,-5.3 2.3,-2.2 4.2,-4.7 5.9,-7.4 0.1,-0.2 0.2,-0.3 0.3,-0.5 0.1,0.7 0.2,1.5 0.3,2.2 0.8,4.8 2.3,9 4.5,12.6 2.2,3.6 5.2,5.9 8.9,7 2.1,0.5 4.5,0.3 7.2,-0.6 2.8,-1.2 5.2,-3 7,-5.5 1.8,-2.5 3.2,-5.3 4.3,-8.4 1.7,3.5 4.4,5.8 8.1,6.8 2.3,0.6 4.5,0.4 6.5,-0.8 2,-1.2 3.8,-2.8 5.4,-4.9 1.6,-2.1 3,-4.6 4.3,-7.4 1.2,-2.8 2.3,-5.5 3.2,-8 0.9,-2.6 1.6,-4.9 2.2,-7.1 0.6,-2.1 1,-3.6 1.3,-4.4 0.1,-0.3 0.2,-0.7 0.2,-1 0.5,0 1,0 1.5,0 0.6,0 1.3,-0.1 1.9,-0.2 -1,3.1 -1.8,6.7 -2.4,10.9 -0.6,4.1 -0.7,8 -0.3,11.7 0.4,3.7 1.3,6.9 2.7,9.5 1.4,2.6 3.7,4 6.8,4.2 2.7,0.1 5.2,-0.6 7.4,-2 2.2,-1.5 4.2,-3.5 6,-5.9 1.6,-2.2 3,-4.6 4.2,-7.1 0.3,2.1 0.6,4.1 1,5.8 0.8,3.2 1.9,5.7 3.5,7.7 1.6,2 3.6,2.9 6,2.9 3.7,0 7,-1.4 9.7,-4.3 2.7,-2.8 5,-6.2 7,-10.1 0.1,-0.3 0.3,-0.6 0.4,-0.9 0.9,4.9 2.6,8.9 5.2,12.1 2.6,3.2 6.2,4.8 10.9,4.8 3.9,0 7.4,-0.8 10.6,-2.5 3.2,-1.7 6,-3.8 8.4,-6.3 2.5,-2.5 4.6,-5.3 6.3,-8.3 1.7,-3 3.2,-6 4.5,-8.8 1.2,-2.8 2.2,-5.4 2.8,-7.7 0.6,-2.3 1.1,-3.8 1.4,-4.6 -0.5,-1.5 -0.6,-2.5 -1.2,-3.2 z m -31.8,-10.7 c 1,-2.9 2,-4.6 2.9,-4.9 0.5,-0.3 1,0.1 1.5,1.2 0.5,1 0.8,2.3 1,3.9 0.2,1.6 0.2,3.1 0.1,4.6 -0.1,1.5 -0.5,2.6 -1,3.4 -0.6,1 -1.7,1.7 -3.1,2 -1.4,0.3 -2.8,0.5 -4.3,0.5 0.9,-4.2 1.9,-7.8 2.9,-10.7 z m -202.4,24.3 c -0.6,3.9 -1.4,7.5 -2.5,10.8 -1.1,3.2 -2.4,5.9 -3.9,7.9 -1.5,2.1 -3.1,3 -4.8,2.7 -1.7,-0.3 -2.9,-1.6 -3.8,-3.9 -0.8,-2.3 -1.4,-5.1 -1.6,-8.4 -0.2,-3.3 -0.1,-6.8 0.4,-10.5 0.5,-3.7 1.2,-7.1 2.2,-10.2 1,-3.1 2.4,-5.6 4,-7.5 1.6,-1.9 3.5,-2.6 5.5,-2.2 1.4,0.3 2.5,1.4 3.2,3.5 0.7,2.1 1.2,4.2 1.5,6.4 0.4,3.7 0.3,7.4 -0.2,11.4 z m 94.9,0 c -0.6,3.9 -1.4,7.5 -2.5,10.8 -1.1,3.2 -2.4,5.9 -3.9,7.9 -1.5,2.1 -3.1,3 -4.8,2.7 -1.7,-0.3 -2.9,-1.6 -3.8,-3.9 -0.8,-2.3 -1.4,-5.1 -1.6,-8.4 -0.2,-3.3 -0.1,-6.8 0.4,-10.5 0.5,-3.7 1.2,-7.1 2.2,-10.2 1,-3.1 2.4,-5.6 4,-7.5 1.6,-1.9 3.5,-2.6 5.5,-2.2 1.4,0.3 2.5,1.4 3.2,3.5 0.7,2.1 1.2,4.2 1.5,6.4 0.5,3.7 0.4,7.4 -0.2,11.4 z"
   id="path12" />
</g>
<g
   id="g24"
   transform="translate(-200.52649,-221.69063)">
	<path
   class="st0"
   d="m 541.2,-411 c -1.8,-0.1 -3.7,-0.4 -5.4,-0.8 -10.3,-1.6 -21.2,-9.7 -28.4,-21.5 -8.4,-13.7 -9.9,-28.9 -3.8,-40.9 5.2,-10.3 16.1,-22.8 19.3,-26.3 9.5,-10.8 11.2,-19.2 5.7,-28.4 -1.4,-2.4 -1.2,-5.2 0.6,-6.8 0.9,-0.7 1.9,-1.1 3.1,-1 1.3,0 2.6,0.5 3.7,1.5 11.3,9.5 18.7,25.8 20.7,38.2 0.4,0.3 0.7,0.6 1,0.9 6.8,7 10.3,17.2 8.8,25.3 -0.5,2.5 -1.4,4.6 -2.6,6.4 0,0 0,0 0.1,0.1 7,8.5 9.9,19.1 8.4,30.4 -2.2,15.6 -17.8,23.7 -31.2,22.9 z m 15.8,-46.4 c -0.7,0.6 -1.3,1.2 -1.8,1.8 -1.3,1.4 -1.5,3.3 -1.2,4.6 0.2,0.9 0.7,1.2 1.1,1.5 0.3,0.2 0.6,0.3 0.8,0.3 0.5,0 1.3,-0.7 1.7,-2.1 0.6,-1.9 0.2,-4.3 -0.6,-6.1 z"
   id="path16" />
	<path
   class="st1"
   d="m 533,-531.3 c 11.9,10 19,29 18.8,39.5 -0.1,7.4 -2.2,13.6 -8,18.7 0.1,0 0.2,0 0.3,0 7.3,0.5 13.8,-13.1 10.2,-19.6 4.9,5 8,13 6.8,19.4 -1.2,6.2 -6.5,9.2 -10.3,13.4 -3.9,4.4 -3.1,11.9 2.4,15.1 1.2,0.7 2.4,1.1 3.4,1.2 3.1,0.3 5.2,-1.9 6.1,-4.9 1.2,-4 0.1,-9.4 -2.5,-13 6.2,7.4 7.9,16.4 6.8,25.1 -1.8,13.2 -15.1,20.4 -26.6,19.8 -1.6,-0.1 -3.1,-0.3 -4.5,-0.7 -18.4,-2.7 -38.4,-32 -27.4,-54 4.2,-8.2 12.7,-18.8 18.6,-25.2 8.3,-9.4 14.3,-20.5 5.9,-34.8 m -1.6,-11 c -2.3,-0.1 -4.5,0.6 -6.2,2.1 -3.6,3.1 -4.2,8.8 -1.3,13.6 2.7,4.6 4.8,10.4 -5.5,22.1 -4.3,4.7 -14.6,16.9 -19.9,27.4 -6.9,13.8 -5.3,31 4.2,46.3 8.2,13.2 20.8,22.4 32.9,24.5 2,0.5 4.1,0.8 6.2,1 15.7,0.9 33.2,-8 35.7,-26.5 1.5,-11.3 -1.1,-22.6 -7.3,-32 0.6,-1.4 1.1,-2.9 1.4,-4.6 1.8,-9.7 -2.3,-22.1 -10.3,-30.7 -2.7,-13.5 -10.7,-30 -22.6,-40.1 -2.1,-2.1 -4.7,-3.1 -7.3,-3.1 z"
   id="path18" />
	<path
   class="st0"
   d="m 510.4,-460.8 c -2,-2.8 -5,-4.7 -8.4,-5.2 -1.9,-0.3 -3.8,-0.2 -5.6,0.2 -0.5,-2.5 -1.3,-4.9 -2.4,-7.3 -1.9,-4.1 -4.5,-7.7 -8,-10.8 -4.2,-3.8 -9.4,-5.7 -14.9,-5.7 -2.9,0 -6.7,0.7 -10.6,3.1 -0.8,-1.3 -2,-2.7 -3.6,-3.9 -1.5,-1.2 -3.3,-2 -5.3,-2.6 -0.6,-3.2 -2.3,-6.1 -4.9,-8.4 -3.1,-2.7 -6.9,-4.3 -11,-4.6 -4.3,-0.3 -8.4,0.9 -12,3.6 -2.3,1.7 -5,4.7 -6.1,9.7 -2.7,0.5 -5,1.4 -7,2.9 -3.8,2.8 -5.7,6.9 -5.4,11.2 0,0.5 0.1,1.2 0.3,1.9 -2.3,-1.6 -5.2,-2.6 -8.8,-2.6 -3.8,0 -7.4,1.2 -10.4,3.6 -1,0.8 -1.9,1.7 -2.7,2.6 -1.5,-1.3 -3.2,-2.3 -5,-3.1 -2.9,-1.2 -5.9,-1.6 -9,-1.4 -2.6,-2.4 -5.7,-3.9 -9.1,-4.7 h -0.2 c -7.4,-1.4 -14.3,-0.1 -19.9,3.9 -2.7,1.9 -5.1,4.3 -7.2,7 -0.3,-0.5 -0.5,-1.1 -0.8,-1.6 -4.2,-7.5 -11.2,-11.7 -19.7,-11.7 -6,0 -11.5,2.5 -16,7.2 -2,2.1 -3.8,4.5 -5.4,7.1 -2,-2.6 -4.6,-4.6 -7.6,-5.9 -2.9,-1.2 -5.9,-1.6 -9,-1.4 -2.6,-2.4 -5.7,-3.9 -9.1,-4.7 h -0.2 c -7.4,-1.4 -14.3,0 -19.9,3.9 -4.1,2.9 -7.6,6.8 -10.2,11.5 0.2,-3.1 0.5,-6.1 0.7,-9.1 0.5,-5.7 1,-10.8 1.6,-15.2 0.6,-4.4 1,-7.3 1.2,-8.7 1,-5.5 -0.8,-10.7 -4.9,-14.3 -3.1,-2.7 -7,-4.3 -11.2,-4.6 -4.3,-0.3 -8.5,1 -12.1,3.6 -3,2.2 -6.6,6.5 -6.6,14.6 0,2.5 -0.2,6.4 -0.7,11.6 -0.5,5.6 -1.1,11.8 -1.6,18.4 -0.5,6.8 -0.9,13.8 -1.1,21 -0.2,7.4 0,14.3 0.7,20.4 0.8,6.8 2.2,12.5 4.5,17.2 3.4,7.1 9.5,11.2 16.9,11.2 4.5,0 11,-1.4 16.6,-7.8 3,3 6.6,5.1 10.7,6.3 l 0.2,0.1 c 1.5,0.4 3.1,0.6 4.8,0.6 2.5,0 5.2,-0.5 8,-1.4 l 0.6,-0.2 c 4.1,-1.7 7.6,-4.2 10.3,-7.7 0.8,0.3 1.7,0.6 2.6,0.9 4.9,1.4 9.8,0.8 14.2,-1.8 1.3,-0.7 2.5,-1.6 3.6,-2.6 3.3,2.7 8.2,5.2 15.3,5.6 h 0.2 c 0.4,0 0.8,0 1.3,0 4.7,0 9.1,-0.9 13.1,-2.8 1.9,-0.9 3.7,-1.9 5.4,-3.1 0.2,0.3 0.3,0.6 0.5,0.9 3.5,5.8 8.6,9.7 14.8,11.4 l 0.2,0.1 c 1.5,0.4 3.1,0.6 4.8,0.6 2.5,0 5.2,-0.5 8,-1.4 l 0.6,-0.2 c 4.1,-1.7 7.6,-4.2 10.3,-7.7 0.8,0.3 1.7,0.6 2.6,0.9 4.9,1.4 9.8,0.8 14.2,-1.8 2.2,-1.3 4.3,-3 6.2,-4.9 0,0 0,0.1 0.1,0.1 3.1,5.8 8.5,9.2 15.1,9.4 0.4,0 0.8,0 1.1,0 4.5,0 8.6,-1.3 12.3,-3.8 0.6,-0.4 1.1,-0.8 1.6,-1.2 3.4,4.1 8.2,6.3 13.5,6.3 5.8,0 11,-2 15.3,-5.8 4.4,5 10.6,7.6 17.8,7.6 5.5,0 10.6,-1.2 15.3,-3.7 4.1,-2.2 7.7,-4.9 10.9,-8.2 3,-3.1 5.7,-6.6 7.8,-10.3 1.9,-3.3 3.6,-6.6 5,-9.8 1.4,-3.2 2.5,-6.2 3.2,-8.9 0.8,-2.7 1.1,-3.7 1.2,-4.1 l 0.2,-0.5 0.1,-0.5 c 1.1,-3.6 0.3,-7.4 -1.9,-10.5 z m -42.8,-3.3 v 1.3 c -0.2,-0.2 -0.4,-0.4 -0.6,-0.6 0.2,-0.3 0.4,-0.5 0.6,-0.7 z m 7.8,27.6 c 0,-0.1 0,-0.2 0,-0.3 0.1,0 0.2,0 0.3,-0.1 -0.1,0.1 -0.2,0.2 -0.3,0.4 z"
   id="path20" />
	<path
   d="m 502.3,-454.9 c -0.5,-0.7 -1.2,-1.1 -1.9,-1.3 -0.8,-0.1 -1.6,0 -2.4,0.4 -0.8,0.4 -1.5,1.2 -1.8,2.3 -0.3,0.9 -0.8,2.4 -1.7,4.4 -0.9,2 -2,4.2 -3.3,6.6 -1.3,2.4 -2.8,4.9 -4.5,7.5 -1.7,2.6 -3.4,4.8 -5.2,6.8 -1.8,1.9 -3.7,3.5 -5.6,4.6 -1.9,1.1 -3.8,1.4 -5.4,0.9 -1.3,-0.4 -2.3,-1.3 -3,-2.7 -0.7,-1.4 -1.2,-3.2 -1.6,-5.2 -0.3,-2.1 -0.5,-4.4 -0.4,-7 0.1,-2.6 0.3,-5.2 0.7,-7.9 1.4,-0.1 3.1,-0.3 4.9,-0.6 1.9,-0.3 3.7,-0.7 5.5,-1.3 1.8,-0.6 3.5,-1.3 5,-2.2 1.6,-0.9 2.8,-2.1 3.9,-3.5 1.3,-1.7 1.8,-4 1.6,-7 -0.2,-3 -0.9,-5.9 -2.2,-8.7 -1.3,-2.8 -3.1,-5.3 -5.5,-7.5 -2.4,-2.1 -5.1,-3.2 -8.2,-3.2 -3.2,0 -6.2,1.6 -8.8,4.8 -2.7,3.2 -4.8,7.3 -6.6,12.2 -1.1,3.2 -2,6.5 -2.6,9.9 -0.4,1.1 -1.1,2.7 -1.9,4.9 -1.2,2.9 -2.5,5.9 -3.9,8.9 -1.4,3 -2.8,5.7 -4.2,8 -1.4,2.3 -2.4,3.5 -3.2,3.5 -0.9,0 -1.5,-1.6 -1.7,-4.9 -0.3,-3.3 -0.3,-7.4 -0.2,-12.4 0.1,-5 0.4,-10.3 0.8,-15.9 0.4,-5.6 0.8,-10.8 1.4,-15.4 h 5.8 c 2.1,0 3.7,-0.4 4.8,-1.2 1.2,-0.8 1.7,-1.6 1.7,-2.6 0,-1 -0.6,-1.9 -1.6,-2.7 -1.1,-0.8 -2.9,-1.3 -5.3,-1.3 H 441 l 1,-5 c 0.4,-2.1 -0.2,-3.7 -1.6,-5 -1.5,-1.3 -3.2,-2 -5.1,-2.1 -1.9,-0.1 -3.8,0.4 -5.4,1.6 -1.7,1.2 -2.5,3.4 -2.5,6.5 0,0.6 0,1.4 -0.1,2.2 -0.1,0.8 -0.1,1.7 -0.1,2.6 H 422 c -2.3,0 -4,0.4 -5,1.2 -1,0.8 -1.5,1.6 -1.5,2.5 0.1,0.9 0.6,1.7 1.7,2.5 1.1,0.8 2.7,1.2 4.8,1.2 h 4.7 c -0.3,3.8 -0.6,7.9 -1,12.3 -0.3,3.4 -0.5,6.7 -0.6,10.1 -0.3,1.5 -0.9,3.7 -1.9,6.6 -1,3 -2.2,6 -3.5,9 -1.3,3 -2.6,5.6 -3.8,7.9 -1.2,2.3 -2.2,3.4 -3,3.4 -1.2,0 -1.9,-1 -2.1,-3.1 -0.3,-2.1 -0.3,-4.6 0,-7.5 0.3,-2.9 0.7,-6 1.3,-9.2 0.6,-3.2 1.1,-6 1.6,-8.3 0.5,-2.3 0.3,-3.8 -0.8,-4.5 -1,-0.6 -2.3,-0.9 -3.9,-0.9 -1.6,0.1 -3.2,0.2 -4.9,0.5 -1.7,0.3 -3,0.2 -3.8,-0.2 1,-2.5 1.4,-4.7 1.2,-6.7 -0.3,-2 -1.7,-3 -4.5,-3 -1.6,0 -2.9,0.5 -4.2,1.5 -1.2,1 -2.2,2.1 -2.8,3.5 -0.6,1.4 -0.9,2.8 -0.8,4.4 0.1,1.6 0.8,2.9 1.9,4.1 l -1.2,3.3 c -0.3,0.7 -0.4,1.4 -0.3,2 -0.3,1 -0.6,2.1 -1,3.3 -0.9,2.7 -1.9,5.4 -3,8.1 -1.1,2.7 -2.2,5.1 -3.3,7.1 -1.1,2 -2,3 -2.8,3 -1,0 -1.7,-1.2 -2,-3.5 -0.3,-2.3 -0.4,-5.1 -0.3,-8.3 0.1,-3.2 0.4,-6.6 0.9,-10.1 0.5,-3.5 0.9,-6.4 1.5,-8.7 0.3,-1.7 -0.1,-3.1 -1,-4.4 -0.9,-1.2 -2.1,-2.1 -3.5,-2.7 -1.4,-0.6 -2.9,-0.8 -4.5,-0.7 -1.6,0.1 -2.8,0.8 -3.9,1.9 -0.9,-1.6 -2,-3 -3.4,-4.3 -1.4,-1.3 -2.9,-2.1 -4.7,-2.5 -4.8,-0.9 -8.9,-0.2 -12.2,2.2 -3.4,2.4 -6,5.7 -8,9.8 -0.9,2 -1.7,4 -2.4,6.2 -0.1,0.2 -0.2,0.4 -0.2,0.6 -0.4,1.3 -1.3,3.5 -2.7,6.7 -1.4,3.2 -3.2,6.3 -5.2,9.4 -2.1,3.1 -4.4,5.7 -7.1,7.9 -2.7,2.1 -5.5,2.7 -8.6,1.8 -1.8,-0.5 -3.1,-1.8 -3.8,-3.9 -0.7,-2.1 -1.1,-4.5 -1.1,-7.4 0,-2.8 0.3,-5.8 0.9,-9 0.6,-3.2 1.3,-6.1 2,-8.8 0.8,-2.7 1.6,-5 2.6,-6.8 1,-1.8 1.8,-2.8 2.6,-2.9 0.8,-0.1 1.2,0.7 1.3,2.4 0.1,1.7 0,3.8 -0.2,6.2 -0.2,2.4 -0.5,4.8 -0.9,7.1 -0.4,2.3 -0.6,4 -0.8,5 -0.3,1.6 0.2,2.5 1.3,2.9 1.1,0.4 2.4,0.3 3.9,-0.3 1.5,-0.6 2.9,-1.7 4.3,-3.3 1.4,-1.6 2.2,-3.7 2.4,-6.3 0.5,-5.8 -0.4,-10.9 -2.8,-15.2 -2.4,-4.3 -6,-6.5 -11,-6.5 -3.2,0 -6.1,1.4 -8.7,4.1 -2.6,2.7 -4.8,6.1 -6.5,10.2 -1.3,3.1 -2.3,6.4 -3,9.9 -0.3,0.9 -0.6,1.9 -0.9,3 -0.9,2.7 -1.9,5.4 -3,8.1 -1.1,2.7 -2.2,5.1 -3.3,7.1 -1.1,2 -2,3 -2.8,3 -1,0 -1.7,-1.2 -2,-3.5 -0.3,-2.3 -0.4,-5.1 -0.3,-8.3 0.1,-3.2 0.4,-6.6 0.9,-10.1 0.5,-3.5 0.9,-6.4 1.5,-8.7 0.3,-1.7 -0.1,-3.1 -1,-4.4 -0.9,-1.2 -2.1,-2.1 -3.5,-2.7 -1.4,-0.6 -2.9,-0.8 -4.5,-0.7 -1.6,0.1 -2.8,0.8 -3.9,1.9 -0.9,-1.6 -2,-3 -3.4,-4.3 -1.4,-1.3 -2.9,-2.1 -4.8,-2.5 -4.8,-0.9 -8.9,-0.2 -12.2,2.2 -3.4,2.4 -6,5.7 -8,9.8 -0.8,1.7 -1.5,3.5 -2.1,5.4 -0.2,0.3 -0.4,0.7 -0.5,1.2 -0.4,1 -1.2,3.3 -2.3,6.7 -1.2,3.4 -2.4,6.9 -3.8,10.6 -1.4,3.6 -2.7,6.9 -4.1,9.7 -1.4,2.8 -2.4,4.3 -3.2,4.3 -1.3,0 -2.2,-1.7 -2.6,-5.1 -0.5,-3.4 -0.6,-7.8 -0.6,-13.2 0.1,-5.4 0.3,-11.2 0.7,-17.5 0.4,-6.3 0.8,-12.4 1.4,-18.3 0.5,-5.9 1.1,-11.1 1.6,-15.6 0.6,-4.5 1,-7.6 1.3,-9.1 0.4,-2.1 -0.2,-3.7 -1.6,-5 -1.5,-1.3 -3.2,-2 -5.2,-2.1 -2,-0.1 -3.8,0.4 -5.5,1.6 -1.7,1.2 -2.5,3.4 -2.5,6.5 0,2.8 -0.3,7 -0.8,12.5 -0.5,5.5 -1,11.6 -1.6,18.2 -0.5,6.7 -0.9,13.5 -1.1,20.5 -0.2,7 0,13.3 0.7,19 0.6,5.7 1.8,10.4 3.6,14.1 1.7,3.7 4.4,5.5 7.9,5.5 3.7,0 7,-1.7 9.7,-5 2.7,-3.4 5,-7.3 7,-11.8 0.2,-0.4 0.3,-0.8 0.5,-1.3 0.8,3.7 2.2,7 3.9,10 2.2,3.6 5.2,5.9 8.9,7 2.1,0.5 4.5,0.3 7.2,-0.6 2.8,-1.2 5.2,-3 7,-5.5 1.8,-2.5 3.2,-5.3 4.3,-8.4 1.7,3.5 4.4,5.8 8.1,6.8 2.3,0.6 4.5,0.4 6.5,-0.8 2,-1.2 3.8,-2.8 5.4,-4.9 1.4,-1.8 2.6,-3.8 3.6,-6.1 1,3.1 2.5,5.8 4.6,8.1 2.6,2.8 6.2,4.4 10.9,4.7 3.6,0.1 6.9,-0.5 9.8,-1.8 2.9,-1.4 5.5,-3.1 7.8,-5.3 2.3,-2.2 4.2,-4.7 5.9,-7.4 0.1,-0.2 0.2,-0.3 0.3,-0.5 0.1,0.7 0.2,1.5 0.3,2.2 0.8,4.8 2.3,9 4.5,12.6 2.2,3.6 5.2,5.9 8.9,7 2.1,0.5 4.5,0.3 7.2,-0.6 2.8,-1.2 5.2,-3 7,-5.5 1.8,-2.5 3.2,-5.3 4.3,-8.4 1.7,3.5 4.4,5.8 8.1,6.8 2.3,0.6 4.5,0.4 6.5,-0.8 2,-1.2 3.8,-2.8 5.4,-4.9 1.6,-2.1 3,-4.6 4.3,-7.4 1.2,-2.8 2.3,-5.5 3.2,-8 0.9,-2.6 1.6,-4.9 2.2,-7.1 0.6,-2.1 1,-3.6 1.3,-4.4 0.1,-0.3 0.2,-0.7 0.2,-1 0.5,0 1,0 1.5,0 0.6,0 1.3,-0.1 1.9,-0.2 -1,3.1 -1.8,6.7 -2.4,10.9 -0.6,4.1 -0.7,8 -0.3,11.7 0.4,3.7 1.3,6.9 2.7,9.5 1.4,2.6 3.7,4 6.8,4.2 2.7,0.1 5.2,-0.6 7.4,-2 2.2,-1.5 4.2,-3.5 6,-5.9 1.6,-2.2 3,-4.6 4.2,-7.1 0.3,2.1 0.6,4.1 1,5.8 0.8,3.2 1.9,5.7 3.5,7.7 1.6,2 3.6,2.9 6,2.9 3.7,0 7,-1.4 9.7,-4.3 2.7,-2.8 5,-6.2 7,-10.1 0.1,-0.3 0.3,-0.6 0.4,-0.9 0.9,4.9 2.6,8.9 5.2,12.1 2.6,3.2 6.2,4.8 10.9,4.8 3.9,0 7.4,-0.8 10.6,-2.5 3.2,-1.7 6,-3.8 8.4,-6.3 2.5,-2.5 4.6,-5.3 6.3,-8.3 1.7,-3 3.2,-6 4.5,-8.8 1.2,-2.8 2.2,-5.4 2.8,-7.7 0.6,-2.3 1.1,-3.8 1.4,-4.6 -0.5,-1.6 -0.6,-2.5 -1.2,-3.2 z m -31.8,-10.7 c 1,-2.9 2,-4.6 2.9,-4.9 0.5,-0.3 1,0.1 1.5,1.2 0.5,1 0.8,2.3 1,3.9 0.2,1.6 0.2,3.1 0.1,4.6 -0.1,1.5 -0.5,2.6 -1,3.4 -0.6,1 -1.7,1.7 -3.1,2 -1.4,0.3 -2.8,0.5 -4.3,0.5 0.9,-4.2 1.9,-7.8 2.9,-10.7 z m -202.4,24.3 c -0.6,3.9 -1.4,7.5 -2.5,10.8 -1.1,3.2 -2.4,5.9 -3.9,7.9 -1.5,2.1 -3.1,3 -4.8,2.7 -1.7,-0.3 -2.9,-1.6 -3.8,-3.9 -0.8,-2.3 -1.4,-5.1 -1.6,-8.4 -0.2,-3.3 -0.1,-6.8 0.4,-10.5 0.5,-3.7 1.2,-7.1 2.2,-10.2 1,-3.1 2.4,-5.6 4,-7.5 1.6,-1.9 3.5,-2.6 5.5,-2.2 1.4,0.3 2.5,1.4 3.2,3.5 0.7,2.1 1.2,4.2 1.5,6.4 0.4,3.7 0.3,7.4 -0.2,11.4 z m 94.9,0 c -0.6,3.9 -1.4,7.5 -2.5,10.8 -1.1,3.2 -2.4,5.9 -3.9,7.9 -1.5,2.1 -3.1,3 -4.8,2.7 -1.7,-0.3 -2.9,-1.6 -3.8,-3.9 -0.8,-2.3 -1.4,-5.1 -1.6,-8.4 -0.2,-3.3 -0.1,-6.8 0.4,-10.5 0.5,-3.7 1.2,-7.1 2.2,-10.2 1,-3.1 2.4,-5.6 4,-7.5 1.6,-1.9 3.5,-2.6 5.5,-2.2 1.4,0.3 2.5,1.4 3.2,3.5 0.7,2.1 1.2,4.2 1.5,6.4 0.5,3.7 0.4,7.4 -0.2,11.4 z"
   id="path22" />
</g>
<g
   id="g42"
   transform="translate(-200.52649,-221.69063)">
	<g
   id="g36">
		<g
   id="g34">
			<g
   id="g30">
				<g
   id="g28">
					<path
   class="st2"
   d="m 1507.2,353 c -1.8,-0.1 -3.7,-0.4 -5.4,-0.8 -10.3,-1.6 -21.2,-9.7 -28.4,-21.5 -8.4,-13.7 -9.9,-28.9 -3.8,-40.9 5.2,-10.3 16.1,-22.8 19.3,-26.3 9.5,-10.8 11.2,-19.2 5.7,-28.4 -1.4,-2.4 -1.2,-5.2 0.6,-6.8 0.9,-0.7 1.9,-1.1 3.1,-1 1.3,0 2.6,0.5 3.7,1.5 11.3,9.5 18.7,25.8 20.7,38.2 0.4,0.3 0.7,0.6 1,0.9 6.8,7 10.3,17.2 8.8,25.3 -0.5,2.5 -1.4,4.6 -2.6,6.4 0,0 0,0 0.1,0.1 7,8.5 9.9,19.1 8.4,30.4 -2.2,15.6 -17.8,23.7 -31.2,22.9 z m 15.8,-46.4 c -0.7,0.6 -1.3,1.2 -1.8,1.8 -1.3,1.4 -1.5,3.3 -1.2,4.6 0.3,0.9 0.7,1.2 1.1,1.5 0.3,0.2 0.6,0.3 0.8,0.3 0.5,0 1.3,-0.7 1.7,-2.1 0.6,-1.9 0.2,-4.3 -0.6,-6.1 z"
   id="path26" />
				</g>
			</g>
			<path
   class="st0"
   d="m 1499,232.7 c 11.9,10 19,29 18.8,39.5 -0.1,7.4 -2.2,13.6 -8,18.7 0.1,0 0.2,0 0.3,0 7.3,0.5 13.8,-13.1 10.2,-19.6 4.9,5 8,13 6.8,19.4 -1.2,6.2 -6.5,9.2 -10.3,13.4 -3.9,4.4 -3.1,11.9 2.4,15.1 1.2,0.7 2.4,1.1 3.4,1.2 3.1,0.3 5.2,-1.9 6.1,-4.9 1.2,-4 0.1,-9.4 -2.5,-13 6.2,7.4 7.9,16.4 6.8,25.1 -1.8,13.2 -15.1,20.4 -26.6,19.8 -1.6,-0.1 -3.1,-0.3 -4.5,-0.7 -18.4,-2.7 -38.4,-32 -27.4,-54 4.2,-8.2 12.7,-18.8 18.6,-25.2 8.3,-9.4 14.3,-20.5 5.9,-34.8 m -1.6,-11 c -2.3,-0.1 -4.5,0.6 -6.2,2.1 -3.6,3.1 -4.2,8.8 -1.3,13.6 2.7,4.6 4.8,10.4 -5.5,22.1 -4.3,4.7 -14.6,16.9 -19.9,27.4 -6.9,13.8 -5.3,31 4.2,46.3 8.2,13.2 20.8,22.4 32.9,24.5 2,0.5 4.1,0.8 6.2,1 15.7,0.9 33.2,-8 35.7,-26.5 1.5,-11.3 -1.1,-22.6 -7.3,-32 0.6,-1.4 1.1,-2.9 1.4,-4.6 1.8,-9.7 -2.3,-22.1 -10.3,-30.7 -2.7,-13.5 -10.7,-30 -22.6,-40.1 -2.1,-2.1 -4.7,-3.1 -7.3,-3.1 z"
   id="path32" />
		</g>
	</g>
	<path
   class="st0"
   d="m 1476.4,303.2 c -2,-2.8 -5,-4.7 -8.4,-5.2 -1.9,-0.3 -3.8,-0.2 -5.6,0.2 -0.5,-2.5 -1.3,-4.9 -2.4,-7.3 -1.9,-4.1 -4.5,-7.7 -8,-10.8 -4.2,-3.8 -9.4,-5.7 -14.9,-5.7 -2.9,0 -6.7,0.7 -10.6,3.1 -0.8,-1.3 -2,-2.7 -3.6,-3.9 -1.5,-1.2 -3.3,-2 -5.3,-2.6 -0.6,-3.2 -2.3,-6.1 -4.9,-8.4 -3.1,-2.7 -6.9,-4.3 -11,-4.6 -4.3,-0.3 -8.4,0.9 -12,3.6 -2.3,1.7 -5,4.7 -6.1,9.7 -2.7,0.5 -5,1.4 -7,2.9 -3.8,2.8 -5.7,6.9 -5.4,11.2 0,0.5 0.1,1.2 0.3,1.9 -2.3,-1.6 -5.2,-2.6 -8.8,-2.6 -3.8,0 -7.4,1.2 -10.4,3.6 -1,0.8 -1.9,1.7 -2.7,2.6 -1.5,-1.3 -3.2,-2.3 -5,-3.1 -2.9,-1.2 -5.9,-1.6 -9,-1.4 -2.6,-2.4 -5.7,-3.9 -9.1,-4.7 h -0.2 c -7.4,-1.4 -14.3,-0.1 -19.9,3.9 -2.7,1.9 -5.1,4.3 -7.2,7 -0.3,-0.5 -0.5,-1.1 -0.8,-1.6 -4.2,-7.5 -11.2,-11.7 -19.7,-11.7 -6,0 -11.5,2.5 -16,7.2 -2,2.1 -3.8,4.5 -5.4,7.1 -2,-2.6 -4.6,-4.6 -7.6,-5.9 -2.9,-1.2 -5.9,-1.6 -9,-1.4 -2.6,-2.4 -5.7,-3.9 -9.1,-4.7 h -0.2 c -7.4,-1.4 -14.3,0 -19.9,3.9 -4.1,2.9 -7.6,6.8 -10.2,11.5 0.2,-3.1 0.5,-6.1 0.7,-9.1 0.5,-5.7 1,-10.8 1.6,-15.2 0.6,-4.4 1,-7.3 1.2,-8.7 1,-5.5 -0.8,-10.7 -4.9,-14.3 -3.1,-2.7 -7,-4.3 -11.2,-4.6 -4.3,-0.3 -8.5,1 -12.1,3.6 -3,2.2 -6.6,6.5 -6.6,14.6 0,2.5 -0.2,6.4 -0.7,11.6 -0.5,5.6 -1.1,11.8 -1.6,18.4 -0.5,6.8 -0.9,13.8 -1.1,21 -0.2,7.4 0,14.3 0.7,20.4 0.8,6.8 2.2,12.5 4.5,17.2 3.4,7.1 9.5,11.2 16.9,11.2 4.5,0 11,-1.4 16.6,-7.8 3,3 6.6,5.1 10.7,6.3 l 0.2,0.1 c 1.5,0.4 3.1,0.6 4.8,0.6 2.5,0 5.2,-0.5 8,-1.4 l 0.6,-0.2 c 4.1,-1.7 7.6,-4.2 10.3,-7.7 0.8,0.3 1.7,0.6 2.6,0.9 4.9,1.4 9.8,0.8 14.2,-1.8 1.3,-0.7 2.5,-1.6 3.6,-2.6 3.3,2.7 8.2,5.2 15.3,5.6 h 0.2 c 0.4,0 0.8,0 1.3,0 4.7,0 9.1,-0.9 13.1,-2.8 1.9,-0.9 3.7,-1.9 5.4,-3.1 0.2,0.3 0.3,0.6 0.5,0.9 3.5,5.8 8.6,9.7 14.8,11.4 l 0.2,0.1 c 1.5,0.4 3.1,0.6 4.8,0.6 2.5,0 5.2,-0.5 8,-1.4 l 0.6,-0.2 c 4.1,-1.7 7.6,-4.2 10.3,-7.7 0.8,0.3 1.7,0.6 2.6,0.9 4.9,1.4 9.8,0.8 14.2,-1.8 2.2,-1.3 4.3,-3 6.2,-4.9 0,0 0,0.1 0.1,0.1 3.1,5.8 8.5,9.2 15.1,9.4 0.4,0 0.8,0 1.1,0 4.5,0 8.6,-1.3 12.3,-3.8 0.6,-0.4 1.1,-0.8 1.6,-1.2 3.4,4.1 8.2,6.3 13.5,6.3 5.8,0 11,-2 15.3,-5.8 4.4,5 10.6,7.6 17.8,7.6 5.5,0 10.6,-1.2 15.3,-3.7 4.1,-2.2 7.7,-4.9 10.9,-8.2 3,-3.1 5.7,-6.6 7.8,-10.3 1.9,-3.3 3.6,-6.6 5,-9.8 1.4,-3.2 2.5,-6.2 3.2,-8.9 0.8,-2.7 1.1,-3.7 1.2,-4.1 l 0.2,-0.5 0.1,-0.5 c 1.1,-3.6 0.3,-7.4 -1.9,-10.5 z m -42.8,-3.3 v 1.3 c -0.2,-0.2 -0.4,-0.4 -0.6,-0.6 0.2,-0.3 0.4,-0.5 0.6,-0.7 z m 7.8,27.6 c 0,-0.1 0,-0.2 0,-0.3 0.1,0 0.2,0 0.3,-0.1 -0.1,0.1 -0.2,0.2 -0.3,0.4 z"
   id="path38" />
	<path
   d="m 1468.3,309.1 c -0.5,-0.7 -1.2,-1.1 -1.9,-1.3 -0.8,-0.1 -1.6,0 -2.4,0.4 -0.8,0.4 -1.5,1.2 -1.8,2.3 -0.3,0.9 -0.8,2.4 -1.7,4.4 -0.9,2 -2,4.2 -3.3,6.6 -1.3,2.4 -2.8,4.9 -4.5,7.5 -1.7,2.6 -3.4,4.8 -5.2,6.8 -1.8,1.9 -3.7,3.5 -5.6,4.6 -1.9,1.1 -3.8,1.4 -5.4,0.9 -1.3,-0.4 -2.3,-1.3 -3,-2.7 -0.7,-1.4 -1.2,-3.2 -1.6,-5.2 -0.3,-2.1 -0.5,-4.4 -0.4,-7 0.1,-2.6 0.3,-5.2 0.7,-7.9 1.4,-0.1 3.1,-0.3 4.9,-0.6 1.9,-0.3 3.7,-0.7 5.5,-1.3 1.8,-0.6 3.5,-1.3 5,-2.2 1.6,-0.9 2.8,-2.1 3.9,-3.5 1.3,-1.7 1.8,-4 1.6,-7 -0.2,-3 -0.9,-5.9 -2.2,-8.7 -1.3,-2.8 -3.1,-5.3 -5.5,-7.5 -2.4,-2.1 -5.1,-3.2 -8.2,-3.2 -3.2,0 -6.2,1.6 -8.8,4.8 -2.7,3.2 -4.8,7.3 -6.6,12.2 -1.1,3.2 -2,6.5 -2.6,9.9 -0.4,1.1 -1.1,2.7 -1.9,4.9 -1.2,2.9 -2.5,5.9 -3.9,8.9 -1.4,3 -2.8,5.7 -4.2,8 -1.4,2.3 -2.4,3.5 -3.2,3.5 -0.9,0 -1.5,-1.6 -1.7,-4.9 -0.3,-3.3 -0.3,-7.4 -0.2,-12.4 0.1,-5 0.4,-10.3 0.8,-15.9 0.4,-5.6 0.8,-10.8 1.4,-15.4 h 5.8 c 2.1,0 3.7,-0.4 4.8,-1.2 1.2,-0.8 1.7,-1.6 1.7,-2.6 0,-1 -0.6,-1.9 -1.6,-2.7 -1.1,-0.8 -2.9,-1.3 -5.3,-1.3 h -4.7 l 1,-5 c 0.4,-2.1 -0.2,-3.7 -1.6,-5 -1.5,-1.3 -3.2,-2 -5.1,-2.1 -1.9,-0.1 -3.8,0.4 -5.4,1.6 -1.7,1.2 -2.5,3.4 -2.5,6.5 0,0.6 0,1.4 -0.1,2.2 -0.1,0.8 -0.1,1.7 -0.1,2.6 h -5.2 c -2.3,0 -4,0.4 -5,1.2 -1,0.8 -1.5,1.6 -1.5,2.5 0.1,0.9 0.6,1.7 1.7,2.5 1.1,0.8 2.7,1.2 4.8,1.2 h 4.7 c -0.3,3.8 -0.6,7.9 -1,12.3 -0.3,3.4 -0.5,6.7 -0.6,10.1 -0.3,1.5 -0.9,3.7 -1.9,6.6 -1,3 -2.2,6 -3.5,9 -1.3,3 -2.6,5.6 -3.8,7.9 -1.2,2.3 -2.2,3.4 -3,3.4 -1.2,0 -1.9,-1 -2.1,-3.1 -0.3,-2.1 -0.3,-4.6 0,-7.5 0.3,-2.9 0.7,-6 1.3,-9.2 0.6,-3.2 1.1,-6 1.6,-8.3 0.5,-2.3 0.3,-3.8 -0.8,-4.5 -1,-0.6 -2.3,-0.9 -3.9,-0.9 -1.6,0.1 -3.2,0.2 -4.9,0.5 -1.7,0.3 -3,0.2 -3.8,-0.2 1,-2.5 1.4,-4.7 1.2,-6.7 -0.3,-2 -1.7,-3 -4.5,-3 -1.6,0 -2.9,0.5 -4.2,1.5 -1.2,1 -2.2,2.1 -2.8,3.5 -0.6,1.4 -0.9,2.8 -0.8,4.4 0.1,1.6 0.8,2.9 1.9,4.1 l -1.2,3.3 c -0.3,0.7 -0.4,1.4 -0.3,2 -0.3,1 -0.6,2.1 -1,3.3 -0.9,2.7 -1.9,5.4 -3,8.1 -1.1,2.7 -2.2,5.1 -3.3,7.1 -1.1,2 -2,3 -2.8,3 -1,0 -1.7,-1.2 -2,-3.5 -0.3,-2.3 -0.4,-5.1 -0.3,-8.3 0.1,-3.2 0.4,-6.6 0.9,-10.1 0.5,-3.5 0.9,-6.4 1.5,-8.7 0.3,-1.7 -0.1,-3.1 -1,-4.4 -0.9,-1.2 -2.1,-2.1 -3.5,-2.7 -1.4,-0.6 -2.9,-0.8 -4.5,-0.7 -1.6,0.1 -2.8,0.8 -3.9,1.9 -0.9,-1.6 -2,-3 -3.4,-4.3 -1.4,-1.3 -2.9,-2.1 -4.7,-2.5 -4.8,-0.9 -8.9,-0.2 -12.2,2.2 -3.4,2.4 -6,5.7 -8,9.8 -0.9,2 -1.7,4 -2.4,6.2 -0.1,0.2 -0.2,0.4 -0.2,0.6 -0.4,1.3 -1.3,3.5 -2.7,6.7 -1.4,3.2 -3.2,6.3 -5.2,9.4 -2.1,3.1 -4.4,5.7 -7.1,7.9 -2.7,2.1 -5.5,2.7 -8.6,1.8 -1.8,-0.5 -3.1,-1.8 -3.8,-3.9 -0.7,-2.1 -1.1,-4.5 -1.1,-7.4 0,-2.8 0.3,-5.8 0.9,-9 0.6,-3.2 1.3,-6.1 2,-8.8 0.8,-2.7 1.6,-5 2.6,-6.8 1,-1.8 1.8,-2.8 2.6,-2.9 0.8,-0.1 1.2,0.7 1.3,2.4 0.1,1.7 0,3.8 -0.2,6.2 -0.2,2.4 -0.5,4.8 -0.9,7.1 -0.4,2.3 -0.6,4 -0.8,5 -0.3,1.6 0.2,2.5 1.3,2.9 1.1,0.4 2.4,0.3 3.9,-0.3 1.5,-0.6 2.9,-1.7 4.3,-3.3 1.4,-1.6 2.2,-3.7 2.4,-6.3 0.5,-5.8 -0.4,-10.9 -2.8,-15.2 -2.4,-4.3 -6,-6.5 -11,-6.5 -3.2,0 -6.1,1.4 -8.7,4.1 -2.6,2.7 -4.8,6.1 -6.5,10.2 -1.3,3.1 -2.3,6.4 -3,9.9 -0.3,0.9 -0.6,1.9 -0.9,3 -0.9,2.7 -1.9,5.4 -3,8.1 -1.1,2.7 -2.2,5.1 -3.3,7.1 -1.1,2 -2,3 -2.8,3 -1,0 -1.7,-1.2 -2,-3.5 -0.3,-2.3 -0.4,-5.1 -0.3,-8.3 0.1,-3.2 0.4,-6.6 0.9,-10.1 0.5,-3.5 0.9,-6.4 1.5,-8.7 0.3,-1.7 -0.1,-3.1 -1,-4.4 -0.9,-1.2 -2.1,-2.1 -3.5,-2.7 -1.4,-0.6 -2.9,-0.8 -4.5,-0.7 -1.6,0.1 -2.8,0.8 -3.9,1.9 -0.9,-1.6 -2,-3 -3.4,-4.3 -1.4,-1.3 -2.9,-2.1 -4.8,-2.5 -4.8,-0.9 -8.9,-0.2 -12.2,2.2 -3.4,2.4 -6,5.7 -8,9.8 -0.8,1.7 -1.5,3.5 -2.1,5.4 -0.2,0.3 -0.4,0.7 -0.5,1.2 -0.4,1 -1.2,3.3 -2.3,6.7 -1.2,3.4 -2.4,6.9 -3.8,10.6 -1.4,3.6 -2.7,6.9 -4.1,9.7 -1.4,2.8 -2.4,4.3 -3.2,4.3 -1.3,0 -2.2,-1.7 -2.6,-5.1 -0.5,-3.4 -0.6,-7.8 -0.6,-13.2 0.1,-5.4 0.3,-11.2 0.7,-17.5 0.4,-6.3 0.8,-12.4 1.4,-18.3 0.5,-5.9 1.1,-11.1 1.6,-15.6 0.6,-4.5 1,-7.6 1.3,-9.1 0.4,-2.1 -0.2,-3.7 -1.6,-5 -1.5,-1.3 -3.2,-2 -5.2,-2.1 -2,-0.1 -3.8,0.4 -5.5,1.6 -1.7,1.2 -2.5,3.4 -2.5,6.5 0,2.8 -0.3,7 -0.8,12.5 -0.5,5.5 -1,11.6 -1.6,18.2 -0.5,6.7 -0.9,13.5 -1.1,20.5 -0.2,7 0,13.3 0.7,19 0.6,5.7 1.8,10.4 3.6,14.1 1.7,3.7 4.4,5.5 7.9,5.5 3.7,0 7,-1.7 9.7,-5 2.7,-3.4 5,-7.3 7,-11.8 0.2,-0.4 0.3,-0.8 0.5,-1.3 0.8,3.7 2.2,7 3.9,10 2.2,3.6 5.2,5.9 8.9,7 2.1,0.5 4.5,0.3 7.2,-0.6 2.8,-1.2 5.2,-3 7,-5.5 1.8,-2.5 3.2,-5.3 4.3,-8.4 1.7,3.5 4.4,5.8 8.1,6.8 2.3,0.6 4.5,0.4 6.5,-0.8 2,-1.2 3.8,-2.8 5.4,-4.9 1.4,-1.8 2.6,-3.8 3.6,-6.1 1,3.1 2.5,5.8 4.6,8.1 2.6,2.8 6.2,4.4 10.9,4.7 3.6,0.1 6.9,-0.5 9.8,-1.8 2.9,-1.4 5.5,-3.1 7.8,-5.3 2.3,-2.2 4.2,-4.7 5.9,-7.4 0.1,-0.2 0.2,-0.3 0.3,-0.5 0.1,0.7 0.2,1.5 0.3,2.2 0.8,4.8 2.3,9 4.5,12.6 2.2,3.6 5.2,5.9 8.9,7 2.1,0.5 4.5,0.3 7.2,-0.6 2.8,-1.2 5.2,-3 7,-5.5 1.8,-2.5 3.2,-5.3 4.3,-8.4 1.7,3.5 4.4,5.8 8.1,6.8 2.3,0.6 4.5,0.4 6.5,-0.8 2,-1.2 3.8,-2.8 5.4,-4.9 1.6,-2.1 3,-4.6 4.3,-7.4 1.2,-2.8 2.3,-5.5 3.2,-8 0.9,-2.6 1.6,-4.9 2.2,-7.1 0.6,-2.1 1,-3.6 1.3,-4.4 0.1,-0.3 0.2,-0.7 0.2,-1 0.5,0 1,0 1.5,0 0.6,0 1.3,-0.1 1.9,-0.2 -1,3.1 -1.8,6.7 -2.4,10.9 -0.6,4.1 -0.7,8 -0.3,11.7 0.4,3.7 1.3,6.9 2.7,9.5 1.4,2.6 3.7,4 6.8,4.2 2.7,0.1 5.2,-0.6 7.4,-2 2.2,-1.5 4.2,-3.5 6,-5.9 1.6,-2.2 3,-4.6 4.2,-7.1 0.3,2.1 0.6,4.1 1,5.8 0.8,3.2 1.9,5.7 3.5,7.7 1.6,2 3.6,2.9 6,2.9 3.7,0 7,-1.4 9.7,-4.3 2.7,-2.8 5,-6.2 7,-10.1 0.1,-0.3 0.3,-0.6 0.4,-0.9 0.9,4.9 2.6,8.9 5.2,12.1 2.6,3.2 6.2,4.8 10.9,4.8 3.9,0 7.4,-0.8 10.6,-2.5 3.2,-1.7 6,-3.8 8.4,-6.3 2.5,-2.5 4.6,-5.3 6.3,-8.3 1.7,-3 3.2,-6 4.5,-8.8 1.2,-2.8 2.2,-5.4 2.8,-7.7 0.6,-2.3 1.1,-3.8 1.4,-4.6 -0.5,-1.5 -0.6,-2.5 -1.2,-3.2 z m -31.8,-10.7 c 1,-2.9 2,-4.6 2.9,-4.9 0.5,-0.3 1,0.1 1.5,1.2 0.5,1 0.8,2.3 1,3.9 0.2,1.6 0.2,3.1 0.1,4.6 -0.1,1.5 -0.5,2.6 -1,3.4 -0.6,1 -1.7,1.7 -3.1,2 -1.4,0.3 -2.8,0.5 -4.3,0.5 0.9,-4.2 1.9,-7.8 2.9,-10.7 z m -202.4,24.3 c -0.6,3.9 -1.4,7.5 -2.5,10.8 -1.1,3.2 -2.4,5.9 -3.9,7.9 -1.5,2.1 -3.1,3 -4.8,2.7 -1.7,-0.3 -2.9,-1.6 -3.8,-3.9 -0.8,-2.3 -1.4,-5.1 -1.6,-8.4 -0.2,-3.3 -0.1,-6.8 0.4,-10.5 0.5,-3.7 1.2,-7.1 2.2,-10.2 1,-3.1 2.4,-5.6 4,-7.5 1.6,-1.9 3.5,-2.6 5.5,-2.2 1.4,0.3 2.5,1.4 3.2,3.5 0.7,2.1 1.2,4.2 1.5,6.4 0.4,3.7 0.3,7.4 -0.2,11.4 z m 94.9,0 c -0.6,3.9 -1.4,7.5 -2.5,10.8 -1.1,3.2 -2.4,5.9 -3.9,7.9 -1.5,2.1 -3.1,3 -4.8,2.7 -1.7,-0.3 -2.9,-1.6 -3.8,-3.9 -0.8,-2.3 -1.4,-5.1 -1.6,-8.4 -0.2,-3.3 -0.1,-6.8 0.4,-10.5 0.5,-3.7 1.2,-7.1 2.2,-10.2 1,-3.1 2.4,-5.6 4,-7.5 1.6,-1.9 3.5,-2.6 5.5,-2.2 1.4,0.3 2.5,1.4 3.2,3.5 0.7,2.1 1.2,4.2 1.5,6.4 0.5,3.7 0.4,7.4 -0.2,11.4 z"
   id="path40" />
</g>
<rect
   x="765.47351"
   y="-985.69061"
   class="st2"
   width="792"
   height="612"
   id="rect44" />
<g
   id="g62"
   transform="translate(-200.52649,-221.69063)">
	<g
   id="g56">
		<g
   id="g54">
			<g
   id="g50">
				<g
   id="g48">
					<path
   class="st2"
   d="m 1507.2,-411 c -1.8,-0.1 -3.7,-0.4 -5.4,-0.8 -10.3,-1.6 -21.2,-9.7 -28.4,-21.5 -8.4,-13.7 -9.9,-28.9 -3.8,-40.9 5.2,-10.3 16.1,-22.8 19.3,-26.3 9.5,-10.8 11.2,-19.2 5.7,-28.4 -1.4,-2.4 -1.2,-5.2 0.6,-6.8 0.9,-0.7 1.9,-1.1 3.1,-1 1.3,0 2.6,0.5 3.7,1.5 11.3,9.5 18.7,25.8 20.7,38.2 0.4,0.3 0.7,0.6 1,0.9 6.8,7 10.3,17.2 8.8,25.3 -0.5,2.5 -1.4,4.6 -2.6,6.4 0,0 0,0 0.1,0.1 7,8.5 9.9,19.1 8.4,30.4 -2.2,15.6 -17.8,23.7 -31.2,22.9 z m 15.8,-46.4 c -0.7,0.6 -1.3,1.2 -1.8,1.8 -1.3,1.4 -1.5,3.3 -1.2,4.6 0.3,0.9 0.7,1.2 1.1,1.5 0.3,0.2 0.6,0.3 0.8,0.3 0.5,0 1.3,-0.7 1.7,-2.1 0.6,-1.9 0.2,-4.3 -0.6,-6.1 z"
   id="path46" />
				</g>
			</g>
			<path
   class="st0"
   d="m 1499,-531.3 c 11.9,10 19,29 18.8,39.5 -0.1,7.4 -2.2,13.6 -8,18.7 0.1,0 0.2,0 0.3,0 7.3,0.5 13.8,-13.1 10.2,-19.6 4.9,5 8,13 6.8,19.4 -1.2,6.2 -6.5,9.2 -10.3,13.4 -3.9,4.4 -3.1,11.9 2.4,15.1 1.2,0.7 2.4,1.1 3.4,1.2 3.1,0.3 5.2,-1.9 6.1,-4.9 1.2,-4 0.1,-9.4 -2.5,-13 6.2,7.4 7.9,16.4 6.8,25.1 -1.8,13.2 -15.1,20.4 -26.6,19.8 -1.6,-0.1 -3.1,-0.3 -4.5,-0.7 -18.4,-2.7 -38.4,-32 -27.4,-54 4.2,-8.2 12.7,-18.8 18.6,-25.2 8.3,-9.4 14.3,-20.5 5.9,-34.8 m -1.6,-11 c -2.3,-0.1 -4.5,0.6 -6.2,2.1 -3.6,3.1 -4.2,8.8 -1.3,13.6 2.7,4.6 4.8,10.4 -5.5,22.1 -4.3,4.7 -14.6,16.9 -19.9,27.4 -6.9,13.8 -5.3,31 4.2,46.3 8.2,13.2 20.8,22.4 32.9,24.5 2,0.5 4.1,0.8 6.2,1 15.7,0.9 33.2,-8 35.7,-26.5 1.5,-11.3 -1.1,-22.6 -7.3,-32 0.6,-1.4 1.1,-2.9 1.4,-4.6 1.8,-9.7 -2.3,-22.1 -10.3,-30.7 -2.7,-13.5 -10.7,-30 -22.6,-40.1 -2.1,-2.1 -4.7,-3.1 -7.3,-3.1 z"
   id="path52" />
		</g>
	</g>
	<path
   class="st0"
   d="m 1476.4,-460.8 c -2,-2.8 -5,-4.7 -8.4,-5.2 -1.9,-0.3 -3.8,-0.2 -5.6,0.2 -0.5,-2.5 -1.3,-4.9 -2.4,-7.3 -1.9,-4.1 -4.5,-7.7 -8,-10.8 -4.2,-3.8 -9.4,-5.7 -14.9,-5.7 -2.9,0 -6.7,0.7 -10.6,3.1 -0.8,-1.3 -2,-2.7 -3.6,-3.9 -1.5,-1.2 -3.3,-2 -5.3,-2.6 -0.6,-3.2 -2.3,-6.1 -4.9,-8.4 -3.1,-2.7 -6.9,-4.3 -11,-4.6 -4.3,-0.3 -8.4,0.9 -12,3.6 -2.3,1.7 -5,4.7 -6.1,9.7 -2.7,0.5 -5,1.4 -7,2.9 -3.8,2.8 -5.7,6.9 -5.4,11.2 0,0.5 0.1,1.2 0.3,1.9 -2.3,-1.6 -5.2,-2.6 -8.8,-2.6 -3.8,0 -7.4,1.2 -10.4,3.6 -1,0.8 -1.9,1.7 -2.7,2.6 -1.5,-1.3 -3.2,-2.3 -5,-3.1 -2.9,-1.2 -5.9,-1.6 -9,-1.4 -2.6,-2.4 -5.7,-3.9 -9.1,-4.7 h -0.2 c -7.4,-1.4 -14.3,-0.1 -19.9,3.9 -2.7,1.9 -5.1,4.3 -7.2,7 -0.3,-0.5 -0.5,-1.1 -0.8,-1.6 -4.2,-7.5 -11.2,-11.7 -19.7,-11.7 -6,0 -11.5,2.5 -16,7.2 -2,2.1 -3.8,4.5 -5.4,7.1 -2,-2.6 -4.6,-4.6 -7.6,-5.9 -2.9,-1.2 -5.9,-1.6 -9,-1.4 -2.6,-2.4 -5.7,-3.9 -9.1,-4.7 h -0.2 c -7.4,-1.4 -14.3,0 -19.9,3.9 -4.1,2.9 -7.6,6.8 -10.2,11.5 0.2,-3.1 0.5,-6.1 0.7,-9.1 0.5,-5.7 1,-10.8 1.6,-15.2 0.6,-4.4 1,-7.3 1.2,-8.7 1,-5.5 -0.8,-10.7 -4.9,-14.3 -3.1,-2.7 -7,-4.3 -11.2,-4.6 -4.3,-0.3 -8.5,1 -12.1,3.6 -3,2.2 -6.6,6.5 -6.6,14.6 0,2.5 -0.2,6.4 -0.7,11.6 -0.5,5.6 -1.1,11.8 -1.6,18.4 -0.5,6.8 -0.9,13.8 -1.1,21 -0.2,7.4 0,14.3 0.7,20.4 0.8,6.8 2.2,12.5 4.5,17.2 3.4,7.1 9.5,11.2 16.9,11.2 4.5,0 11,-1.4 16.6,-7.8 3,3 6.6,5.1 10.7,6.3 l 0.2,0.1 c 1.5,0.4 3.1,0.6 4.8,0.6 2.5,0 5.2,-0.5 8,-1.4 l 0.6,-0.2 c 4.1,-1.7 7.6,-4.2 10.3,-7.7 0.8,0.3 1.7,0.6 2.6,0.9 4.9,1.4 9.8,0.8 14.2,-1.8 1.3,-0.7 2.5,-1.6 3.6,-2.6 3.3,2.7 8.2,5.2 15.3,5.6 h 0.2 c 0.4,0 0.8,0 1.3,0 4.7,0 9.1,-0.9 13.1,-2.8 1.9,-0.9 3.7,-1.9 5.4,-3.1 0.2,0.3 0.3,0.6 0.5,0.9 3.5,5.8 8.6,9.7 14.8,11.4 l 0.2,0.1 c 1.5,0.4 3.1,0.6 4.8,0.6 2.5,0 5.2,-0.5 8,-1.4 l 0.6,-0.2 c 4.1,-1.7 7.6,-4.2 10.3,-7.7 0.8,0.3 1.7,0.6 2.6,0.9 4.9,1.4 9.8,0.8 14.2,-1.8 2.2,-1.3 4.3,-3 6.2,-4.9 0,0 0,0.1 0.1,0.1 3.1,5.8 8.5,9.2 15.1,9.4 0.4,0 0.8,0 1.1,0 4.5,0 8.6,-1.3 12.3,-3.8 0.6,-0.4 1.1,-0.8 1.6,-1.2 3.4,4.1 8.2,6.3 13.5,6.3 5.8,0 11,-2 15.3,-5.8 4.4,5 10.6,7.6 17.8,7.6 5.5,0 10.6,-1.2 15.3,-3.7 4.1,-2.2 7.7,-4.9 10.9,-8.2 3,-3.1 5.7,-6.6 7.8,-10.3 1.9,-3.3 3.6,-6.6 5,-9.8 1.4,-3.2 2.5,-6.2 3.2,-8.9 0.8,-2.7 1.1,-3.7 1.2,-4.1 l 0.2,-0.5 0.1,-0.5 c 1.1,-3.6 0.3,-7.4 -1.9,-10.5 z m -42.8,-3.3 v 1.3 c -0.2,-0.2 -0.4,-0.4 -0.6,-0.6 0.2,-0.3 0.4,-0.5 0.6,-0.7 z m 7.8,27.6 c 0,-0.1 0,-0.2 0,-0.3 0.1,0 0.2,0 0.3,-0.1 -0.1,0.1 -0.2,0.2 -0.3,0.4 z"
   id="path58" />
	<path
   d="m 1468.3,-454.9 c -0.5,-0.7 -1.2,-1.1 -1.9,-1.3 -0.8,-0.1 -1.6,0 -2.4,0.4 -0.8,0.4 -1.5,1.2 -1.8,2.3 -0.3,0.9 -0.8,2.4 -1.7,4.4 -0.9,2 -2,4.2 -3.3,6.6 -1.3,2.4 -2.8,4.9 -4.5,7.5 -1.7,2.6 -3.4,4.8 -5.2,6.8 -1.8,1.9 -3.7,3.5 -5.6,4.6 -1.9,1.1 -3.8,1.4 -5.4,0.9 -1.3,-0.4 -2.3,-1.3 -3,-2.7 -0.7,-1.4 -1.2,-3.2 -1.6,-5.2 -0.3,-2.1 -0.5,-4.4 -0.4,-7 0.1,-2.6 0.3,-5.2 0.7,-7.9 1.4,-0.1 3.1,-0.3 4.9,-0.6 1.9,-0.3 3.7,-0.7 5.5,-1.3 1.8,-0.6 3.5,-1.3 5,-2.2 1.6,-0.9 2.8,-2.1 3.9,-3.5 1.3,-1.7 1.8,-4 1.6,-7 -0.2,-3 -0.9,-5.9 -2.2,-8.7 -1.3,-2.8 -3.1,-5.3 -5.5,-7.5 -2.4,-2.1 -5.1,-3.2 -8.2,-3.2 -3.2,0 -6.2,1.6 -8.8,4.8 -2.7,3.2 -4.8,7.3 -6.6,12.2 -1.1,3.2 -2,6.5 -2.6,9.9 -0.4,1.1 -1.1,2.7 -1.9,4.9 -1.2,2.9 -2.5,5.9 -3.9,8.9 -1.4,3 -2.8,5.7 -4.2,8 -1.4,2.3 -2.4,3.5 -3.2,3.5 -0.9,0 -1.5,-1.6 -1.7,-4.9 -0.3,-3.3 -0.3,-7.4 -0.2,-12.4 0.1,-5 0.4,-10.3 0.8,-15.9 0.4,-5.6 0.8,-10.8 1.4,-15.4 h 5.8 c 2.1,0 3.7,-0.4 4.8,-1.2 1.2,-0.8 1.7,-1.6 1.7,-2.6 0,-1 -0.6,-1.9 -1.6,-2.7 -1.1,-0.8 -2.9,-1.3 -5.3,-1.3 h -4.7 l 1,-5 c 0.4,-2.1 -0.2,-3.7 -1.6,-5 -1.5,-1.3 -3.2,-2 -5.1,-2.1 -1.9,-0.1 -3.8,0.4 -5.4,1.6 -1.7,1.2 -2.5,3.4 -2.5,6.5 0,0.6 0,1.4 -0.1,2.2 -0.1,0.8 -0.1,1.7 -0.1,2.6 h -5.2 c -2.3,0 -4,0.4 -5,1.2 -1,0.8 -1.5,1.6 -1.5,2.5 0.1,0.9 0.6,1.7 1.7,2.5 1.1,0.8 2.7,1.2 4.8,1.2 h 4.7 c -0.3,3.8 -0.6,7.9 -1,12.3 -0.3,3.4 -0.5,6.7 -0.6,10.1 -0.3,1.5 -0.9,3.7 -1.9,6.6 -1,3 -2.2,6 -3.5,9 -1.3,3 -2.6,5.6 -3.8,7.9 -1.2,2.3 -2.2,3.4 -3,3.4 -1.2,0 -1.9,-1 -2.1,-3.1 -0.3,-2.1 -0.3,-4.6 0,-7.5 0.3,-2.9 0.7,-6 1.3,-9.2 0.6,-3.2 1.1,-6 1.6,-8.3 0.5,-2.3 0.3,-3.8 -0.8,-4.5 -1,-0.6 -2.3,-0.9 -3.9,-0.9 -1.6,0.1 -3.2,0.2 -4.9,0.5 -1.7,0.3 -3,0.2 -3.8,-0.2 1,-2.5 1.4,-4.7 1.2,-6.7 -0.3,-2 -1.7,-3 -4.5,-3 -1.6,0 -2.9,0.5 -4.2,1.5 -1.2,1 -2.2,2.1 -2.8,3.5 -0.6,1.4 -0.9,2.8 -0.8,4.4 0.1,1.6 0.8,2.9 1.9,4.1 l -1.2,3.3 c -0.3,0.7 -0.4,1.4 -0.3,2 -0.3,1 -0.6,2.1 -1,3.3 -0.9,2.7 -1.9,5.4 -3,8.1 -1.1,2.7 -2.2,5.1 -3.3,7.1 -1.1,2 -2,3 -2.8,3 -1,0 -1.7,-1.2 -2,-3.5 -0.3,-2.3 -0.4,-5.1 -0.3,-8.3 0.1,-3.2 0.4,-6.6 0.9,-10.1 0.5,-3.5 0.9,-6.4 1.5,-8.7 0.3,-1.7 -0.1,-3.1 -1,-4.4 -0.9,-1.2 -2.1,-2.1 -3.5,-2.7 -1.4,-0.6 -2.9,-0.8 -4.5,-0.7 -1.6,0.1 -2.8,0.8 -3.9,1.9 -0.9,-1.6 -2,-3 -3.4,-4.3 -1.4,-1.3 -2.9,-2.1 -4.7,-2.5 -4.8,-0.9 -8.9,-0.2 -12.2,2.2 -3.4,2.4 -6,5.7 -8,9.8 -0.9,2 -1.7,4 -2.4,6.2 -0.1,0.2 -0.2,0.4 -0.2,0.6 -0.4,1.3 -1.3,3.5 -2.7,6.7 -1.4,3.2 -3.2,6.3 -5.2,9.4 -2.1,3.1 -4.4,5.7 -7.1,7.9 -2.7,2.1 -5.5,2.7 -8.6,1.8 -1.8,-0.5 -3.1,-1.8 -3.8,-3.9 -0.7,-2.1 -1.1,-4.5 -1.1,-7.4 0,-2.8 0.3,-5.8 0.9,-9 0.6,-3.2 1.3,-6.1 2,-8.8 0.8,-2.7 1.6,-5 2.6,-6.8 1,-1.8 1.8,-2.8 2.6,-2.9 0.8,-0.1 1.2,0.7 1.3,2.4 0.1,1.7 0,3.8 -0.2,6.2 -0.2,2.4 -0.5,4.8 -0.9,7.1 -0.4,2.3 -0.6,4 -0.8,5 -0.3,1.6 0.2,2.5 1.3,2.9 1.1,0.4 2.4,0.3 3.9,-0.3 1.5,-0.6 2.9,-1.7 4.3,-3.3 1.4,-1.6 2.2,-3.7 2.4,-6.3 0.5,-5.8 -0.4,-10.9 -2.8,-15.2 -2.4,-4.3 -6,-6.5 -11,-6.5 -3.2,0 -6.1,1.4 -8.7,4.1 -2.6,2.7 -4.8,6.1 -6.5,10.2 -1.3,3.1 -2.3,6.4 -3,9.9 -0.3,0.9 -0.6,1.9 -0.9,3 -0.9,2.7 -1.9,5.4 -3,8.1 -1.1,2.7 -2.2,5.1 -3.3,7.1 -1.1,2 -2,3 -2.8,3 -1,0 -1.7,-1.2 -2,-3.5 -0.3,-2.3 -0.4,-5.1 -0.3,-8.3 0.1,-3.2 0.4,-6.6 0.9,-10.1 0.5,-3.5 0.9,-6.4 1.5,-8.7 0.3,-1.7 -0.1,-3.1 -1,-4.4 -0.9,-1.2 -2.1,-2.1 -3.5,-2.7 -1.4,-0.6 -2.9,-0.8 -4.5,-0.7 -1.6,0.1 -2.8,0.8 -3.9,1.9 -0.9,-1.6 -2,-3 -3.4,-4.3 -1.4,-1.3 -2.9,-2.1 -4.8,-2.5 -4.8,-0.9 -8.9,-0.2 -12.2,2.2 -3.4,2.4 -6,5.7 -8,9.8 -0.8,1.7 -1.5,3.5 -2.1,5.4 -0.2,0.3 -0.4,0.7 -0.5,1.2 -0.4,1 -1.2,3.3 -2.3,6.7 -1.2,3.4 -2.4,6.9 -3.8,10.6 -1.4,3.6 -2.7,6.9 -4.1,9.7 -1.4,2.8 -2.4,4.3 -3.2,4.3 -1.3,0 -2.2,-1.7 -2.6,-5.1 -0.5,-3.4 -0.6,-7.8 -0.6,-13.2 0.1,-5.4 0.3,-11.2 0.7,-17.5 0.4,-6.3 0.8,-12.4 1.4,-18.3 0.5,-5.9 1.1,-11.1 1.6,-15.6 0.6,-4.5 1,-7.6 1.3,-9.1 0.4,-2.1 -0.2,-3.7 -1.6,-5 -1.5,-1.3 -3.2,-2 -5.2,-2.1 -2,-0.1 -3.8,0.4 -5.5,1.6 -1.7,1.2 -2.5,3.4 -2.5,6.5 0,2.8 -0.3,7 -0.8,12.5 -0.5,5.5 -1,11.6 -1.6,18.2 -0.5,6.7 -0.9,13.5 -1.1,20.5 -0.2,7 0,13.3 0.7,19 0.6,5.7 1.8,10.4 3.6,14.1 1.7,3.7 4.4,5.5 7.9,5.5 3.7,0 7,-1.7 9.7,-5 2.7,-3.4 5,-7.3 7,-11.8 0.2,-0.4 0.3,-0.8 0.5,-1.3 0.8,3.7 2.2,7 3.9,10 2.2,3.6 5.2,5.9 8.9,7 2.1,0.5 4.5,0.3 7.2,-0.6 2.8,-1.2 5.2,-3 7,-5.5 1.8,-2.5 3.2,-5.3 4.3,-8.4 1.7,3.5 4.4,5.8 8.1,6.8 2.3,0.6 4.5,0.4 6.5,-0.8 2,-1.2 3.8,-2.8 5.4,-4.9 1.4,-1.8 2.6,-3.8 3.6,-6.1 1,3.1 2.5,5.8 4.6,8.1 2.6,2.8 6.2,4.4 10.9,4.7 3.6,0.1 6.9,-0.5 9.8,-1.8 2.9,-1.4 5.5,-3.1 7.8,-5.3 2.3,-2.2 4.2,-4.7 5.9,-7.4 0.1,-0.2 0.2,-0.3 0.3,-0.5 0.1,0.7 0.2,1.5 0.3,2.2 0.8,4.8 2.3,9 4.5,12.6 2.2,3.6 5.2,5.9 8.9,7 2.1,0.5 4.5,0.3 7.2,-0.6 2.8,-1.2 5.2,-3 7,-5.5 1.8,-2.5 3.2,-5.3 4.3,-8.4 1.7,3.5 4.4,5.8 8.1,6.8 2.3,0.6 4.5,0.4 6.5,-0.8 2,-1.2 3.8,-2.8 5.4,-4.9 1.6,-2.1 3,-4.6 4.3,-7.4 1.2,-2.8 2.3,-5.5 3.2,-8 0.9,-2.6 1.6,-4.9 2.2,-7.1 0.6,-2.1 1,-3.6 1.3,-4.4 0.1,-0.3 0.2,-0.7 0.2,-1 0.5,0 1,0 1.5,0 0.6,0 1.3,-0.1 1.9,-0.2 -1,3.1 -1.8,6.7 -2.4,10.9 -0.6,4.1 -0.7,8 -0.3,11.7 0.4,3.7 1.3,6.9 2.7,9.5 1.4,2.6 3.7,4 6.8,4.2 2.7,0.1 5.2,-0.6 7.4,-2 2.2,-1.5 4.2,-3.5 6,-5.9 1.6,-2.2 3,-4.6 4.2,-7.1 0.3,2.1 0.6,4.1 1,5.8 0.8,3.2 1.9,5.7 3.5,7.7 1.6,2 3.6,2.9 6,2.9 3.7,0 7,-1.4 9.7,-4.3 2.7,-2.8 5,-6.2 7,-10.1 0.1,-0.3 0.3,-0.6 0.4,-0.9 0.9,4.9 2.6,8.9 5.2,12.1 2.6,3.2 6.2,4.8 10.9,4.8 3.9,0 7.4,-0.8 10.6,-2.5 3.2,-1.7 6,-3.8 8.4,-6.3 2.5,-2.5 4.6,-5.3 6.3,-8.3 1.7,-3 3.2,-6 4.5,-8.8 1.2,-2.8 2.2,-5.4 2.8,-7.7 0.6,-2.3 1.1,-3.8 1.4,-4.6 -0.5,-1.6 -0.6,-2.5 -1.2,-3.2 z m -31.8,-10.7 c 1,-2.9 2,-4.6 2.9,-4.9 0.5,-0.3 1,0.1 1.5,1.2 0.5,1 0.8,2.3 1,3.9 0.2,1.6 0.2,3.1 0.1,4.6 -0.1,1.5 -0.5,2.6 -1,3.4 -0.6,1 -1.7,1.7 -3.1,2 -1.4,0.3 -2.8,0.5 -4.3,0.5 0.9,-4.2 1.9,-7.8 2.9,-10.7 z m -202.4,24.3 c -0.6,3.9 -1.4,7.5 -2.5,10.8 -1.1,3.2 -2.4,5.9 -3.9,7.9 -1.5,2.1 -3.1,3 -4.8,2.7 -1.7,-0.3 -2.9,-1.6 -3.8,-3.9 -0.8,-2.3 -1.4,-5.1 -1.6,-8.4 -0.2,-3.3 -0.1,-6.8 0.4,-10.5 0.5,-3.7 1.2,-7.1 2.2,-10.2 1,-3.1 2.4,-5.6 4,-7.5 1.6,-1.9 3.5,-2.6 5.5,-2.2 1.4,0.3 2.5,1.4 3.2,3.5 0.7,2.1 1.2,4.2 1.5,6.4 0.4,3.7 0.3,7.4 -0.2,11.4 z m 94.9,0 c -0.6,3.9 -1.4,7.5 -2.5,10.8 -1.1,3.2 -2.4,5.9 -3.9,7.9 -1.5,2.1 -3.1,3 -4.8,2.7 -1.7,-0.3 -2.9,-1.6 -3.8,-3.9 -0.8,-2.3 -1.4,-5.1 -1.6,-8.4 -0.2,-3.3 -0.1,-6.8 0.4,-10.5 0.5,-3.7 1.2,-7.1 2.2,-10.2 1,-3.1 2.4,-5.6 4,-7.5 1.6,-1.9 3.5,-2.6 5.5,-2.2 1.4,0.3 2.5,1.4 3.2,3.5 0.7,2.1 1.2,4.2 1.5,6.4 0.5,3.7 0.4,7.4 -0.2,11.4 z"
   id="path60" />
</g>
</svg>
